<?xml version="1.0" standalone="no"?>
<!DOCTYPE svg PUBLIC "-//W3C//DTD SVG 20010904//EN"
 "http://www.w3.org/TR/2001/REC-SVG-20010904/DTD/svg10.dtd">
<svg version="1.0" xmlns="http://www.w3.org/2000/svg"
 width="300.000000pt" height="239.000000pt" viewBox="0 0 300.000000 239.000000"
 preserveAspectRatio="xMidYMid meet">
<metadata>
Created by potrace 1.10, written by Peter Selinger 2001-2011
</metadata>
<g transform="translate(0.000000,239.000000) scale(0.100000,-0.100000)"
fill="#000000" stroke="none">
<path d="M1183 1799 c-32 -9 -33 -11 -33 -65 0 -50 2 -55 18 -49 44 19 111 17
166 -4 71 -26 111 -26 176 -1 28 11 66 20 84 20 18 0 59 -9 91 -20 66 -23 94
-24 148 -9 l37 10 0 56 c0 49 -2 54 -17 48 -45 -18 -112 -17 -172 4 -76 26
-97 26 -168 1 -32 -11 -73 -20 -93 -20 -20 0 -61 9 -93 20 -61 22 -94 24 -144
9z m143 -45 c52 -18 135 -15 226 6 50 12 63 12 117 -5 33 -10 78 -18 100 -19
45 -2 62 -13 41 -26 -22 -14 -64 -12 -117 6 -60 21 -146 21 -195 0 -47 -20
-95 -20 -152 -1 -25 9 -66 16 -93 17 -59 2 -67 6 -52 24 15 18 67 18 125 -2z"/>
<path d="M1178 1608 c-26 -9 -28 -14 -28 -65 0 -49 2 -54 18 -47 41 18 111 16
178 -7 66 -23 68 -23 128 -5 100 29 147 31 218 6 44 -15 75 -20 102 -16 67 11
76 21 76 78 0 48 -1 50 -22 44 -58 -18 -105 -17 -162 3 -74 26 -112 26 -176 1
-28 -11 -66 -20 -84 -20 -18 0 -59 9 -91 20 -63 22 -114 24 -157 8z m167 -48
c57 -22 99 -22 153 -1 63 25 136 27 188 5 22 -9 59 -18 84 -19 30 -2 45 -7 45
-16 0 -20 -70 -23 -115 -5 -70 28 -130 30 -188 7 -63 -25 -109 -27 -160 -5
-20 8 -62 17 -92 19 -39 2 -56 7 -58 18 -2 8 5 17 15 19 22 5 88 -7 128 -22z"/>
<path d="M1173 1420 c-20 -8 -23 -17 -23 -66 0 -50 2 -55 18 -49 29 12 84 24
96 20 6 -2 43 -13 81 -25 75 -22 74 -22 201 14 53 15 57 14 172 -18 52 -15 98
-13 135 6 13 7 17 21 17 60 0 48 -1 50 -22 44 -60 -18 -95 -17 -153 3 -74 26
-130 27 -195 1 -28 -11 -62 -20 -76 -20 -13 0 -50 9 -81 20 -60 21 -132 25
-170 10z m159 -45 c48 -19 130 -19 183 0 51 19 123 19 166 1 19 -8 56 -16 84
-18 53 -5 71 -22 32 -32 -27 -6 -65 -1 -125 20 -57 19 -76 18 -177 -8 l-86
-21 -67 21 c-37 12 -84 22 -104 22 -25 0 -38 5 -38 13 0 8 2 16 4 18 10 9 90
-1 128 -16z"/>
<path d="M1173 1230 c-20 -8 -23 -17 -23 -61 0 -48 1 -51 23 -45 62 17 95 16
151 -3 74 -26 126 -26 199 -1 70 25 84 25 149 0 57 -22 131 -26 172 -10 23 8
26 15 26 60 0 55 -2 56 -61 39 -33 -10 -48 -9 -104 10 -83 27 -132 27 -212 -1
-63 -21 -65 -21 -121 -3 -67 21 -168 28 -199 15z m149 -40 c75 -23 133 -25
180 -6 56 24 108 25 173 5 33 -10 79 -19 103 -19 29 0 42 -4 42 -14 0 -25 -52
-28 -120 -6 -81 25 -132 25 -202 1 -58 -20 -130 -20 -153 -1 -7 6 -40 14 -72
16 -83 8 -94 14 -58 30 39 17 33 17 107 -6z"/>
<path d="M660 904 c0 -25 2 -26 35 -21 l35 6 0 -155 0 -154 25 0 25 0 0 154 0
155 35 -6 c33 -5 35 -4 35 21 l0 26 -95 0 -95 0 0 -26z"/>
<path d="M919 901 c-29 -29 -29 -30 -29 -149 l0 -120 31 -26 c43 -36 91 -35
130 3 34 35 41 91 11 91 -12 0 -21 -11 -27 -32 -9 -28 -15 -34 -45 -36 -42 -4
-60 16 -60 70 l0 38 75 0 75 0 0 66 c0 59 -3 68 -29 95 -41 40 -91 40 -132 0z
m109 -39 c6 -9 12 -28 12 -44 0 -27 -1 -28 -55 -28 -54 0 -55 1 -55 28 0 62
61 89 98 44z"/>
<path d="M1153 906 c-28 -24 -28 -25 -28 -151 0 -126 0 -127 28 -151 54 -46
135 -24 157 42 13 38 7 54 -20 54 -13 0 -20 -8 -22 -27 -4 -37 -44 -58 -73
-39 -17 12 -20 26 -23 116 -3 112 4 130 48 130 30 0 46 -14 52 -45 4 -24 36
-32 44 -11 3 8 -2 30 -11 49 -28 60 -102 76 -152 33z"/>
<path d="M1350 755 l0 -175 25 0 c24 0 25 2 25 75 l0 75 46 0 46 0 -4 -75 c-3
-72 -2 -75 20 -75 22 0 22 0 22 175 0 168 -1 175 -20 175 -18 0 -20 -7 -20
-75 l0 -75 -45 0 -45 0 0 75 c0 73 -1 75 -25 75 l-25 0 0 -175z"/>
<path d="M1710 755 l0 -175 25 0 c24 0 25 2 25 75 l0 75 43 0 42 0 -3 -75 -4
-75 26 0 26 0 0 175 0 175 -26 0 -26 0 4 -75 3 -75 -42 0 -43 0 0 75 c0 73 -1
75 -25 75 l-25 0 0 -175z"/>
<path d="M1938 783 l3 -148 30 -27 c41 -39 90 -38 130 1 l29 29 0 146 c0 139
-1 146 -20 146 -19 0 -20 -7 -20 -133 0 -147 -7 -170 -55 -170 -48 0 -55 23
-55 170 0 131 0 133 -22 133 -23 0 -23 0 -20 -147z"/>
<path d="M2180 755 l0 -175 61 0 c54 0 64 3 90 29 33 34 38 75 14 122 -12 21
-13 34 -5 48 20 39 12 91 -19 122 -26 25 -37 29 -85 29 l-56 0 0 -175z m94
125 c56 -21 36 -100 -26 -100 -27 0 -28 2 -28 48 0 64 6 71 54 52z m25 -164
c20 -24 9 -69 -20 -85 -42 -23 -59 -9 -59 49 l0 50 34 0 c18 0 39 -6 45 -14z"/>
</g>
</svg>
